<?xml version="1.0" encoding="iso-8859-1"?>
<!-- Uploaded to: SVG Repo, www.svgrepo.com, Generator: SVG Repo Mixer Tools -->
<svg height="800px" width="800px" version="1.1" id="Layer_1" xmlns="http://www.w3.org/2000/svg" xmlns:xlink="http://www.w3.org/1999/xlink" 
	 viewBox="0 0 502.4 502.4" xml:space="preserve">
<path style="fill:#50DD8E;" d="M251.2,429.867C140.267,464,54.933,438.4,54.933,327.467C54.933,233.6,157.333,54.4,251.2,3.2
	c110.933,51.2,196.267,230.4,196.267,324.267c0,86.187-68.267,127.147-162.133,110.933L251.2,429.867z"/>
<path style="fill:#51565F;" d="M251.2,502.4c-2.56,0-4.267-1.707-4.267-4.267V435.84c-66.56,19.627-120.32,16.213-154.453-8.533
	c-27.307-20.48-41.813-53.76-41.813-98.987c0-92.16,99.84-273.92,198.827-327.68c0.853-0.853,2.56-0.853,3.413,0
	C366.4,52.693,451.733,236.16,451.733,329.173c0,38.4-12.8,69.973-38.4,90.453c-29.867,25.6-75.947,34.133-128.853,24.747
	c-2.56,0-4.267-2.56-3.413-5.12c0.853-2.56,2.56-4.267,5.12-3.413c50.347,9.387,93.867,0.853,122.027-23.04
	c23.04-19.627,34.987-48.64,34.987-83.627c0-90.453-81.92-267.093-192-319.147c-95.573,53.76-192,230.4-192,319.147
	c0,42.667,12.8,73.387,37.547,92.16c32.427,23.893,85.333,26.453,150.187,6.827v-69.973L105.28,333.44
	c-2.56,0-4.267-2.56-3.413-5.12c0-2.56,2.56-4.267,5.12-3.413l139.947,24.747V272L138.56,230.186c-2.56-0.853-3.413-3.413-2.56-5.12
	c0.853-1.707,3.413-3.413,5.12-2.56l104.96,40.107v-76.8l-82.773-46.08c-1.707-0.853-2.56-3.413-1.707-5.973
	c0.853-1.707,3.413-2.56,5.973-1.707l79.36,43.52V54.4c0-2.56,1.707-4.267,4.267-4.267c2.56,0,4.267,1.707,4.267,4.267v121.173
	l79.36-43.52c1.707-0.853,4.267,0,5.973,1.707c0.853,1.707,0,4.267-1.707,5.973l-82.773,46.08v76.8l104.96-40.107
	c2.56-0.853,4.267,0,5.12,2.56c0.853,2.56,0,4.267-2.56,5.12L255.467,272v77.653l139.947-24.747c2.56-0.853,4.267,0.853,5.12,3.413
	c0,2.56-0.853,4.267-3.413,5.12l-141.653,24.747v73.387l0,0v68.267C255.467,500.693,253.76,502.4,251.2,502.4z"/>
</svg>