<?xml version="1.0" standalone="no"?>
<!DOCTYPE svg PUBLIC "-//W3C//DTD SVG 20010904//EN"
        "http://www.w3.org/TR/2001/REC-SVG-20010904/DTD/svg10.dtd">

<svg xmlns="http://www.w3.org/2000/svg"
     width="310" height="130"
     viewBox="0 0 115 70"
     preserveAspectRatio="xMidYMid meet">

    <defs>
        <filter id="softGlow" x="-50%" y="-50%" width="200%" height="200%">
            <feGaussianBlur stdDeviation="1.8" result="blur"/>
            <feMerge>
                <feMergeNode in="blur"/>
                <feMergeNode in="SourceGraphic"/>
            </feMerge>
        </filter>
    </defs>

    <!-- Wreath glow layer (added, no position changes) -->
    <g transform="translate(1,29) scale(0.0038,-0.0038) translate(-5000,-5000)"
       fill="#fff" stroke="none" opacity="0.6"
       filter="url(#softGlow)">
        <path d="M4640 7168 c-5 -13 -30 -75 -56 -138 -93 -231 -214 -440 -330 -570
    -128 -145 -314 -288 -488 -375 -74 -37 -82 -45 -136 -125 -173 -258 -378 -644
    -480 -904 -27 -71 -50 -134 -50 -139 0 -6 22 19 49 54 59 78 184 200 267 261
    135 98 304 167 479 193 111 17 335 20 335 6 0 -6 -23 -40 -52 -78 -211 -277
    -352 -404 -552 -499 -144 -68 -224 -85 -418 -91 l-167 -5 -22 -72 c-67 -218
    -130 -526 -159 -771 -6 -49 -13 -200 -16 -335 l-5 -245 40 116 c46 136 75 196
    146 304 61 92 193 224 281 280 108 70 376 186 392 171 15 -16 -122 -391 -180
    -495 -131 -234 -377 -437 -608 -502 -25 -7 -49 -16 -53 -20 -20 -17 33 -369
    88 -589 31 -124 92 -300 153 -442 50 -114 172 -351 172 -333 0 6 -7 46 -16 90
    -25 122 -23 320 5 420 26 100 87 228 148 314 45 64 240 267 248 259 3 -2 11
    -51 20 -109 71 -489 6 -771 -251 -1074 -34 -40 -54 -71 -50 -81 11 -28 178
    -263 261 -367 111 -138 260 -298 375 -403 102 -93 295 -254 305 -254 3 0 -12
    27 -35 59 -109 161 -185 366 -196 531 -10 136 32 327 108 500 l25 55 77 -119
    c96 -145 174 -297 205 -394 71 -225 66 -442 -13 -653 l-33 -88 161 -114 c351
    -250 591 -384 850 -476 44 -16 90 -33 101 -37 11 -4 -19 31 -68 79 -211 209
    -307 444 -306 747 0 74 4 143 8 154 6 16 17 11 91 -45 119 -89 279 -247 340
    -335 65 -93 122 -208 151 -304 20 -64 24 -96 24 -222 l0 -147 50 -12 c138 -32
    563 -155 721 -207 213 -71 378 -136 572 -226 78 -36 147 -66 152 -66 6 0 77
    33 158 74 265 133 546 235 964 351 112 31 230 64 262 73 l59 17 2 140 c2 112
    6 155 24 215 51 170 152 330 304 477 95 92 266 233 282 233 4 0 5 -84 2 -187
    -5 -201 -14 -255 -68 -387 -48 -118 -118 -224 -215 -324 -103 -105 -103 -104
    56 -45 236 88 565 278 882 510 l86 63 -24 61 c-108 265 -91 564 48 844 35 70
    205 345 213 345 2 0 19 -39 40 -87 77 -186 110 -386 85 -533 -25 -153 -92
    -317 -185 -459 -20 -29 -34 -55 -33 -56 2 -2 64 48 140 111 223 186 416 386
    580 601 81 106 206 286 215 309 3 8 -19 43 -53 82 -117 137 -204 302 -245 466
    -33 131 -36 334 -9 541 12 94 24 172 26 174 2 2 51 -43 108 -100 269 -270 361
    -555 290 -903 -8 -38 -13 -71 -10 -73 7 -7 111 195 167 322 120 275 195 557
    235 874 20 167 23 157 -38 176 -85 27 -248 111 -319 165 -137 103 -251 246
    -331 417 -40 84 -153 412 -145 419 7 8 141 -38 225 -77 305 -141 508 -378 608
    -709 l23 -75 0 181 c2 364 -51 726 -160 1099 l-41 140 -141 1 c-117 2 -159 6
    -238 27 -291 76 -502 245 -752 604 -21 29 -37 55 -37 58 0 9 193 5 285 -6 106
    -13 230 -47 322 -89 156 -71 344 -228 453 -378 24 -34 46 -60 48 -57 7 7 -109
    289 -178 430 -81 166 -216 403 -324 570 l-78 121 -86 44 c-155 81 -291 178
    -397 284 -121 120 -180 199 -268 355 -58 101 -182 372 -202 439 -9 29 -3 28
    135 -30 344 -146 542 -290 700 -510 92 -129 169 -324 185 -468 6 -60 14 -76
    105 -215 134 -206 248 -402 336 -579 41 -82 74 -145 74 -140 0 5 -9 61 -21
    124 -47 265 -35 509 36 725 28 87 54 147 143 337 9 21 20 38 23 38 10 0 114
    -255 148 -363 17 -53 38 -141 47 -195 46 -279 -52 -582 -250 -770 l-66 -64 34
    -91 c140 -374 227 -759 263 -1157 l7 -85 7 102 c19 266 99 499 238 693 64 89
    227 280 240 280 17 0 46 -273 46 -430 0 -177 -15 -261 -72 -396 -84 -201 -219
    -353 -389 -437 l-62 -30 -6 -126 c-26 -486 -93 -834 -222 -1149 -43 -105 -43
    -113 2 -32 133 238 314 431 524 557 53 32 210 109 269 133 48 19 52 19 47 3
    -3 -10 -12 -46 -20 -79 -80 -314 -225 -574 -401 -713 -142 -113 -300 -177
    -467 -188 l-99 -6 -23 -41 c-235 -417 -408 -655 -680 -935 -61 -62 -104 -110
    -96 -105 8 4 58 37 110 73 249 169 504 242 840 240 206 -1 202 4 92 -117 -256
    -280 -454 -396 -745 -432 -125 -16 -244 -2 -381 45 l-99 33 -81 -67 c-197
    -163 -609 -450 -813 -567 -56 -32 -101 -60 -99 -62 2 -2 25 4 50 12 186 63
    488 61 711 -6 73 -21 279 -99 316 -118 20 -11 18 -14 -37 -47 -459 -276 -856
    -282 -1242 -20 l-79 54 -94 -34 c-52 -18 -274 -85 -494 -148 -637 -182 -821
    -248 -1133 -409 l-54 -27 101 -62 c143 -88 338 -225 389 -273 44 -43 48 -64
    14 -91 -37 -30 -74 -16 -197 78 -132 100 -292 210 -371 254 l-51 28 -65 -36
    c-87 -48 -253 -158 -389 -257 -116 -85 -153 -97 -191 -63 -33 30 -23 58 40
    106 68 53 277 192 347 233 28 15 70 41 94 56 l44 28 -94 43 c-280 130 -600
    241 -1089 377 -302 84 -480 138 -564 170 -78 30 -79 30 -100 11 -43 -39 -178
    -120 -251 -150 -234 -98 -461 -106 -705 -25 -104 34 -380 170 -387 189 -7 23
    297 132 462 166 86 18 124 20 265 16 159 -5 249 -20 344 -56 57 -23 35 -2 -47
    42 -188 102 -620 401 -863 598 l-71 57 -99 -33 c-165 -57 -310 -65 -486 -29
    -219 45 -428 180 -634 412 l-94 107 42 8 c24 5 120 6 213 4 317 -9 527 -77
    794 -255 l96 -64 -96 99 c-271 277 -543 649 -680 926 l-32 64 -101 6 c-199 11
    -384 98 -539 253 -153 154 -240 329 -341 683 l-16 53 32 -6 c52 -10 272 -124
    365 -189 164 -115 361 -334 442 -495 34 -66 35 -44 3 34 -53 127 -119 362
    -156 549 -28 145 -47 327 -53 522 l-6 192 -34 12 c-56 18 -174 102 -239 171
    -183 190 -279 467 -260 748 8 118 36 330 46 349 5 9 32 -15 93 -84 244 -273
    363 -532 384 -829 9 -134 19 -144 26 -25 19 307 121 761 249 1101 l41 110 -57
    50 c-128 113 -226 300 -257 493 -16 99 -6 296 20 395 31 121 157 450 172 450
    11 0 120 -242 158 -354 61 -177 75 -258 75 -436 -1 -139 -22 -319 -50 -425 -3
    -11 35 59 84 155 100 196 219 398 347 587 69 102 85 133 85 163 0 60 44 218
    87 310 61 131 128 225 238 335 111 112 233 198 389 275 94 46 292 129 308 130
    4 0 3 -10 -2 -22z"/>
    </g>

    <!-- Main Wreath -->
    <g transform="translate(1,29) scale(0.0038,-0.0038) translate(-5000,-5000)"
       fill="#fff" stroke="none"
       filter="url(#softGlow)">

        <path d="M4640 7168 c-5 -13 -30 -75 -56 -138 -93 -231 -214 -440 -330 -570
    -128 -145 -314 -288 -488 -375 -74 -37 -82 -45 -136 -125 -173 -258 -378 -644
    -480 -904 -27 -71 -50 -134 -50 -139 0 -6 22 19 49 54 59 78 184 200 267 261
    135 98 304 167 479 193 111 17 335 20 335 6 0 -6 -23 -40 -52 -78 -211 -277
    -352 -404 -552 -499 -144 -68 -224 -85 -418 -91 l-167 -5 -22 -72 c-67 -218
    -130 -526 -159 -771 -6 -49 -13 -200 -16 -335 l-5 -245 40 116 c46 136 75 196
    146 304 61 92 193 224 281 280 108 70 376 186 392 171 15 -16 -122 -391 -180
    -495 -131 -234 -377 -437 -608 -502 -25 -7 -49 -16 -53 -20 -20 -17 33 -369
    88 -589 31 -124 92 -300 153 -442 50 -114 172 -351 172 -333 0 6 -7 46 -16 90
    -25 122 -23 320 5 420 26 100 87 228 148 314 45 64 240 267 248 259 3 -2 11
    -51 20 -109 71 -489 6 -771 -251 -1074 -34 -40 -54 -71 -50 -81 11 -28 178
    -263 261 -367 111 -138 260 -298 375 -403 102 -93 295 -254 305 -254 3 0 -12
    27 -35 59 -109 161 -185 366 -196 531 -10 136 32 327 108 500 l25 55 77 -119
    c96 -145 174 -297 205 -394 71 -225 66 -442 -13 -653 l-33 -88 161 -114 c351
    -250 591 -384 850 -476 44 -16 90 -33 101 -37 11 -4 -19 31 -68 79 -211 209
    -307 444 -306 747 0 74 4 143 8 154 6 16 17 11 91 -45 119 -89 279 -247 340
    -335 65 -93 122 -208 151 -304 20 -64 24 -96 24 -222 l0 -147 50 -12 c138 -32
    563 -155 721 -207 213 -71 378 -136 572 -226 78 -36 147 -66 152 -66 6 0 77
    33 158 74 265 133 546 235 964 351 112 31 230 64 262 73 l59 17 2 140 c2 112
    6 155 24 215 51 170 152 330 304 477 95 92 266 233 282 233 4 0 5 -84 2 -187
    -5 -201 -14 -255 -68 -387 -48 -118 -118 -224 -215 -324 -103 -105 -103 -104
    56 -45 236 88 565 278 882 510 l86 63 -24 61 c-108 265 -91 564 48 844 35 70
    205 345 213 345 2 0 19 -39 40 -87 77 -186 110 -386 85 -533 -25 -153 -92
    -317 -185 -459 -20 -29 -34 -55 -33 -56 2 -2 64 48 140 111 223 186 416 386
    580 601 81 106 206 286 215 309 3 8 -19 43 -53 82 -117 137 -204 302 -245 466
    -33 131 -36 334 -9 541 12 94 24 172 26 174 2 2 51 -43 108 -100 269 -270 361
    -555 290 -903 -8 -38 -13 -71 -10 -73 7 -7 111 195 167 322 120 275 195 557
    235 874 20 167 23 157 -38 176 -85 27 -248 111 -319 165 -137 103 -251 246
    -331 417 -40 84 -153 412 -145 419 7 8 141 -38 225 -77 305 -141 508 -378 608
    -709 l23 -75 0 181 c2 364 -51 726 -160 1099 l-41 140 -141 1 c-117 2 -159 6
    -238 27 -291 76 -502 245 -752 604 -21 29 -37 55 -37 58 0 9 193 5 285 -6 106
    -13 230 -47 322 -89 156 -71 344 -228 453 -378 24 -34 46 -60 48 -57 7 7 -109
    289 -178 430 -81 166 -216 403 -324 570 l-78 121 -86 44 c-155 81 -291 178
    -397 284 -121 120 -180 199 -268 355 -58 101 -182 372 -202 439 -9 29 -3 28
    135 -30 344 -146 542 -290 700 -510 92 -129 169 -324 185 -468 6 -60 14 -76
    105 -215 134 -206 248 -402 336 -579 41 -82 74 -145 74 -140 0 5 -9 61 -21
    124 -47 265 -35 509 36 725 28 87 54 147 143 337 9 21 20 38 23 38 10 0 114
    -255 148 -363 17 -53 38 -141 47 -195 46 -279 -52 -582 -250 -770 l-66 -64 34
    -91 c140 -374 227 -759 263 -1157 l7 -85 7 102 c19 266 99 499 238 693 64 89
    227 280 240 280 17 0 46 -273 46 -430 0 -177 -15 -261 -72 -396 -84 -201 -219
    -353 -389 -437 l-62 -30 -6 -126 c-26 -486 -93 -834 -222 -1149 -43 -105 -43
    -113 2 -32 133 238 314 431 524 557 53 32 210 109 269 133 48 19 52 19 47 3
    -3 -10 -12 -46 -20 -79 -80 -314 -225 -574 -401 -713 -142 -113 -300 -177
    -467 -188 l-99 -6 -23 -41 c-235 -417 -408 -655 -680 -935 -61 -62 -104 -110
    -96 -105 8 4 58 37 110 73 249 169 504 242 840 240 206 -1 202 4 92 -117 -256
    -280 -454 -396 -745 -432 -125 -16 -244 -2 -381 45 l-99 33 -81 -67 c-197
    -163 -609 -450 -813 -567 -56 -32 -101 -60 -99 -62 2 -2 25 4 50 12 186 63
    488 61 711 -6 73 -21 279 -99 316 -118 20 -11 18 -14 -37 -47 -459 -276 -856
    -282 -1242 -20 l-79 54 -94 -34 c-52 -18 -274 -85 -494 -148 -637 -182 -821
    -248 -1133 -409 l-54 -27 101 -62 c143 -88 338 -225 389 -273 44 -43 48 -64
    14 -91 -37 -30 -74 -16 -197 78 -132 100 -292 210 -371 254 l-51 28 -65 -36
    c-87 -48 -253 -158 -389 -257 -116 -85 -153 -97 -191 -63 -33 30 -23 58 40
    106 68 53 277 192 347 233 28 15 70 41 94 56 l44 28 -94 43 c-280 130 -600
    241 -1089 377 -302 84 -480 138 -564 170 -78 30 -79 30 -100 11 -43 -39 -178
    -120 -251 -150 -234 -98 -461 -106 -705 -25 -104 34 -380 170 -387 189 -7 23
    297 132 462 166 86 18 124 20 265 16 159 -5 249 -20 344 -56 57 -23 35 -2 -47
    42 -188 102 -620 401 -863 598 l-71 57 -99 -33 c-165 -57 -310 -65 -486 -29
    -219 45 -428 180 -634 412 l-94 107 42 8 c24 5 120 6 213 4 317 -9 527 -77
    794 -255 l96 -64 -96 99 c-271 277 -543 649 -680 926 l-32 64 -101 6 c-199 11
    -384 98 -539 253 -153 154 -240 329 -341 683 l-16 53 32 -6 c52 -10 272 -124
    365 -189 164 -115 361 -334 442 -495 34 -66 35 -44 3 34 -53 127 -119 362
    -156 549 -28 145 -47 327 -53 522 l-6 192 -34 12 c-56 18 -174 102 -239 171
    -183 190 -279 467 -260 748 8 118 36 330 46 349 5 9 32 -15 93 -84 244 -273
    363 -532 384 -829 9 -134 19 -144 26 -25 19 307 121 761 249 1101 l41 110 -57
    50 c-128 113 -226 300 -257 493 -16 99 -6 296 20 395 31 121 157 450 172 450
    11 0 120 -242 158 -354 61 -177 75 -258 75 -436 -1 -139 -22 -319 -50 -425 -3
    -11 35 59 84 155 100 196 219 398 347 587 69 102 85 133 85 163 0 60 44 218
    87 310 61 131 128 225 238 335 111 112 233 198 389 275 94 46 292 129 308 130
    4 0 3 -10 -2 -22z"/>
    </g>

    <!-- Text -->
    <text x="37" y="39"
          fill="#ffffff"
          font-size="14"
          font-family="Arial, sans-serif"
          dominant-baseline="middle"
          filter="url(#softGlow)"
          style="letter-spacing:0.3px;">
        DayHub
    </text>

</svg>